<?xml version="1.0" standalone="no"?>
<!DOCTYPE svg PUBLIC "-//W3C//DTD SVG 20010904//EN"
 "http://www.w3.org/TR/2001/REC-SVG-20010904/DTD/svg10.dtd">
<svg version="1.0" xmlns="http://www.w3.org/2000/svg"
 width="512.000000pt" height="522.000000pt" viewBox="0 0 512.000000 522.000000"
 preserveAspectRatio="xMidYMid meet">

<g transform="translate(0.000000,522.000000) scale(0.100000,-0.100000)"
fill="#ffffff" stroke="none">
<path d="M2470 5201 c-207 -68 -377 -303 -520 -718 -41 -118 -115 -405 -146
-564 -9 -48 -19 -91 -23 -98 -5 -8 -59 5 -177 42 -93 29 -224 69 -291 88 -109
30 -123 36 -128 59 -11 45 -54 98 -102 127 -40 23 -59 28 -113 28 -74 -1 -118
-19 -165 -71 l-30 -32 -115 9 c-251 22 -473 -23 -568 -114 -236 -226 53 -681
785 -1237 l143 -108 -108 -80 c-289 -214 -609 -515 -731 -687 -35 -50 -86
-136 -114 -192 -41 -84 -51 -115 -55 -172 -11 -153 66 -253 238 -311 83 -28
311 -38 484 -21 215 21 550 100 878 206 75 25 146 45 157 45 15 0 22 -9 27
-37 17 -98 48 -242 81 -380 l37 -152 -41 -44 c-71 -77 -81 -163 -29 -251 35
-60 97 -96 177 -103 58 -6 61 -7 81 -47 75 -147 207 -288 325 -344 69 -32 79
-34 148 -30 96 6 167 42 255 128 194 188 342 544 455 1094 20 92 37 172 40
176 3 5 45 -5 93 -21 112 -38 428 -130 561 -164 277 -70 627 -103 798 -76 246
38 356 170 313 375 -16 80 -96 234 -177 341 -140 186 -396 428 -684 647 -60
46 -108 88 -108 93 0 6 61 57 136 115 75 58 195 154 266 214 119 100 131 107
154 97 13 -6 49 -11 80 -11 164 0 269 160 198 302 -15 31 -15 33 17 83 103
162 144 276 136 380 -16 194 -184 284 -535 285 -282 0 -614 -63 -1049 -199
-89 -28 -171 -51 -182 -51 -16 0 -23 8 -28 38 -62 358 -190 765 -308 975 -89
160 -224 305 -326 350 -49 22 -168 32 -210 18z m182 -127 c57 -19 155 -107
210 -186 61 -90 141 -266 191 -418 74 -223 168 -663 149 -696 -5 -8 -119 -60
-253 -114 -134 -53 -277 -112 -317 -129 l-74 -32 -176 75 c-98 41 -240 100
-317 131 -77 31 -144 60 -148 65 -21 20 83 495 154 705 111 325 263 553 404
603 45 16 125 14 177 -4z m2088 -1105 c72 -11 162 -49 199 -82 80 -74 65 -229
-38 -383 l-46 -69 -71 3 c-55 3 -82 -1 -115 -15 -56 -25 -116 -91 -125 -138
-7 -38 -1 -119 11 -147 5 -12 -20 -39 -107 -113 -109 -94 -268 -216 -394 -304
l-61 -43 -154 104 c-85 57 -216 141 -291 186 -155 94 -143 74 -152 242 -3 52
-16 182 -28 288 -13 118 -18 196 -12 201 12 12 248 89 459 149 176 51 435 106
565 121 109 12 285 12 360 0z m-4023 -5 c25 -5 30 -12 40 -55 16 -65 44 -103
101 -136 67 -40 157 -40 225 0 26 15 59 46 74 68 14 21 29 39 33 39 15 0 235
-64 396 -115 113 -36 174 -60 178 -71 4 -9 -3 -80 -13 -158 -11 -77 -25 -211
-31 -296 -6 -85 -13 -164 -15 -175 -3 -11 -24 -31 -47 -44 -24 -13 -152 -93
-284 -177 -133 -85 -250 -154 -260 -154 -22 0 -228 151 -394 288 -152 126
-372 347 -448 450 -106 144 -146 257 -128 357 16 82 126 157 253 174 80 10
278 13 320 5z m1458 -419 c50 -20 125 -53 167 -72 l77 -36 -202 -102 c-111
-56 -238 -123 -282 -148 -44 -25 -83 -43 -87 -41 -5 3 -8 26 -8 51 0 70 41
416 51 435 9 16 17 15 102 -16 50 -18 133 -50 182 -71z m1070 -30 c19 -149 33
-329 28 -360 -5 -23 -6 -22 -81 23 -43 25 -168 91 -279 148 l-202 102 122 55
c209 96 382 166 389 159 4 -4 14 -61 23 -127z m-428 -278 c248 -124 415 -216
451 -249 l22 -21 -1 -346 c-1 -190 -4 -357 -8 -370 -5 -18 -37 -42 -121 -89
-133 -75 -528 -273 -581 -292 -36 -13 -40 -12 -274 103 -130 64 -290 148 -354
186 l-118 70 -6 68 c-4 37 -7 202 -7 366 0 296 0 298 23 320 51 52 670 367
719 367 15 0 130 -51 255 -113z m896 -500 c99 -65 175 -122 172 -127 -18 -30
-440 -294 -455 -285 -12 7 -14 238 -3 448 l6 137 51 -28 c28 -15 131 -80 229
-145z m-2028 46 c7 -106 -1 -452 -11 -462 -10 -10 -435 264 -441 285 -4 12
414 293 439 294 3 0 9 -53 13 -117z m-401 -348 c80 -53 201 -127 269 -165 67
-38 128 -73 135 -77 9 -6 18 -59 27 -176 7 -92 22 -240 31 -328 16 -140 16
-161 4 -170 -23 -14 -392 -133 -520 -168 -416 -110 -802 -137 -958 -66 -69 32
-88 48 -114 99 -47 91 -2 237 123 407 102 139 348 372 592 563 125 97 238 176
252 176 6 0 78 -43 159 -95z m2803 47 c407 -281 751 -618 860 -842 30 -60 37
-89 41 -151 4 -67 1 -82 -19 -118 -28 -51 -79 -86 -161 -114 -53 -17 -87 -21
-213 -21 -211 0 -441 40 -760 133 -171 49 -467 149 -479 161 -6 6 -3 62 7 142
9 73 21 187 27 253 6 66 13 147 16 180 l5 60 92 54 c51 30 182 112 291 183
110 70 205 128 211 128 6 0 43 -22 82 -48z m-817 -474 c0 -93 -39 -409 -52
-425 -7 -9 -26 -6 -80 13 -79 29 -345 142 -401 171 l-37 18 242 123 c134 67
259 133 278 146 19 14 38 25 43 26 4 0 7 -33 7 -72z m-1234 -25 c88 -49 208
-110 267 -137 59 -27 107 -52 107 -56 0 -8 -255 -121 -404 -180 -112 -44 -118
-42 -133 50 -7 41 -16 150 -19 243 -6 141 -5 167 7 167 8 0 87 -39 175 -87z
m680 -321 c82 -38 208 -92 279 -121 72 -28 147 -59 168 -68 l39 -17 -7 -55
c-12 -102 -75 -398 -110 -523 -141 -493 -324 -750 -534 -752 -120 0 -245 103
-345 286 l-36 65 21 19 c59 52 76 168 36 245 -28 53 -98 103 -156 113 -33 5
-44 12 -52 34 -22 54 -100 419 -106 493 l-6 75 208 83 c114 45 259 107 323
137 65 29 120 54 123 54 3 0 73 -31 155 -68z"/>
<path d="M2477 2870 c-62 -16 -112 -47 -154 -94 -116 -132 -65 -323 107 -405
45 -21 69 -26 130 -26 135 1 244 72 281 182 15 46 7 149 -15 191 -58 112 -222
184 -349 152z"/>
</g>
</svg>
