<?xml version="1.0" encoding="utf-8"?>
<!-- Generator: Adobe Illustrator 22.1.0, SVG Export Plug-In . SVG Version: 6.00 Build 0)  -->
<svg version="1.1" id="Layer_1" xmlns="http://www.w3.org/2000/svg" xmlns:xlink="http://www.w3.org/1999/xlink" x="0px" y="0px"
	 viewBox="0 0 512 512" style="enable-background:new 0 0 512 512;" xml:space="preserve">
<g>
	<path d="M256,452.9l61.5,0c4.5,0,9-0.5,13.4-1.5l104.6-24.1c26.7-6.1,45.5-29.7,45.5-56.7V189.7c0-21-11.5-40.4-29.9-50.7L365,90.8
		c-30.2-16.9-59.1-5.1-81.1,21.7l-127.4-49c-33.3-12.8-70.9,3.3-84.1,36.2c-13.3,33.1,3.2,70.6,36.9,83.6l69.3,16.4l-82.6-8
		c-35.9,0-65,28.8-65,64.3c0,35.4,29.2,64.3,65,64.3h77c-3.2,23.1,7.6,45.1,26.7,57.1C188,414.9,216.5,452.9,256,452.9z M256,410.7
		c-22.1,0-22.1-32.1,0-32.1c7.8,0,14.1-6.3,14.1-14.1v-6c0-7.8-6.3-14.1-14.1-14.1h-24.6c-22.1,0-22.1-32.1,0-32.1H256
		c7.8,0,14.1-6.3,14.1-14.1v-6c0-7.8-6.3-14.1-14.1-14.1H96c-30.3,0-30.2-44.2,0-44.2h160c7.8,0,14.1-6.3,14.1-14.1v-10.2
		c0-5.8-3.6-11-9-13.1l-136.5-52.5c-27.7-10.7-11.8-52.1,16.9-41.1l146.4,56.3c5.7,2.2,12.1,0.5,15.9-4.2l19.1-23.4
		c5.1-6.3,14.4-8,21.5-4l86.1,48.2c5.1,2.9,8.3,8.2,8.3,13.9v180.8c0,7.5-5.3,13.9-12.8,15.6l-104.6,24.1c-1.3,0.3-2.6,0.4-3.9,0.4
		L256,410.7L256,410.7z"/>
</g>
</svg>
