<?xml version="1.0" encoding="utf-8"?>
<!-- Generator: Adobe Illustrator 22.1.0, SVG Export Plug-In . SVG Version: 6.00 Build 0)  -->
<svg version="1.1" id="Layer_1" xmlns="http://www.w3.org/2000/svg" xmlns:xlink="http://www.w3.org/1999/xlink" x="0px" y="0px"
	 viewBox="0 0 512 512" style="enable-background:new 0 0 512 512;" xml:space="preserve">
<g>
	<path d="M390.4,100.5c-19.7-29.8-58.1-37.2-86.8-20.7c-25.9-27.7-69.6-27.3-95.2,0c-41.4-23.7-95.5,4.4-97.3,53.4
		c-40.6-9.5-80,20.9-80,62.6v50.1c0,28.8,12.6,56.2,34.4,75.3l85.9,74.8c3.7,3.3,2.7,4.9,2.7,28.9c0,15.5,12.6,28.1,28.1,28.1h221.5
		c15.5,0,28.1-12.6,28.1-28.1c0-20.7-0.9-27,3.5-37.2l37.6-87.6c5.4-12.5,8.1-25.6,8.1-39.2V160.2C481,113.7,433.3,82.2,390.4,100.5
		z M438.8,260.8c0,7.7-1.6,15.4-4.6,22.5l-37.6,87.6c-4.6,10.7-6.9,22-6.9,33.6v6.2H196.2v-9c0-14.4-6.3-28.1-17.2-37.6l-85.9-74.8
		c-12.7-11-20-26.9-20-43.4v-50.1c0-29.2,45.7-29.5,45.7,0.6v36.2c0,4.1,1.8,7.9,4.8,10.6l6.2,5.4c5.9,5.1,14.7,4.5,19.8-1.4
		c2.2-2.6,3.5-5.8,3.5-9.2V135.5c0-29.1,45.7-29.6,45.7,0.6v23.5c0,7.8,6.3,14.1,14.1,14.1h6.2c7.8,0,14.1-6.3,14.1-14.1v-36.2
		c0-29.1,45.7-29.6,45.7,0.6v35.6c0,7.8,6.3,14.1,14.1,14.1h6.2c7.8,0,14.1-6.3,14.1-14.1v-24.1c0-29,45.7-29.7,45.7,0.6v23.5
		c0,7.8,6.3,14.1,14.1,14.1h6.2c7.8,0,14.1-6.3,14.1-14.1c0-29.1,45.7-29.5,45.7,0.6V260.8z"/>
</g>
</svg>
