<?xml version="1.0" encoding="utf-8"?>
<!-- Generator: Adobe Illustrator 22.1.0, SVG Export Plug-In . SVG Version: 6.00 Build 0)  -->
<svg version="1.1" id="Layer_1" xmlns="http://www.w3.org/2000/svg" xmlns:xlink="http://www.w3.org/1999/xlink" x="0px" y="0px"
	 viewBox="0 0 512 512" style="enable-background:new 0 0 512 512;" xml:space="preserve">
<g>
	<path d="M465.9,283L351.6,106.6C341.2,90.6,323.5,81,304.4,81H74.8C50.6,81,31,100.6,31,124.8v6.2c0,34.5,28,62.5,62.5,62.5h153.2
		L232.3,231h-88.8c-37.9,0-68.8,30.8-68.8,68.8c0,24.1,19.6,43.8,43.8,43.8h102.8c2.3,0,4.6,0.4,6.8,1.3l77.9,30.3V431h175v-97
		C481,315.8,475.8,298.2,465.9,283z M443.5,393.5h-100v-18.4c0-15.6-9.4-29.3-23.9-35l-77.9-30.3c-6.5-2.5-13.4-3.8-20.4-3.8H118.5
		c-3.4,0-6.2-2.8-6.2-6.2c0-17.2,14-31.2,31.2-31.2h88.8c15.4,0,29.5-9.7,35-24.1l19.2-50.2c7-18.4-6.6-38.2-26.3-38.2H93.5
		c-13.8,0-25-11.2-25-25v-6.2c0-3.4,2.8-6.2,6.2-6.2h229.6c6.4,0,12.3,3.2,15.7,8.5l114.3,176.3c5.9,9.1,9.1,19.7,9.1,30.6V393.5z"
		/>
</g>
</svg>
